<svg width="149" height="56" viewBox="0 0 149 56" fill="none" xmlns="http://www.w3.org/2000/svg">
<path d="M59.4432 10.5455L64.3011 24.7614H64.4972L69.3551 10.5455H72.2017L65.9205 28H62.8778L56.5966 10.5455H59.4432ZM78.4795 28.2642C77.2522 28.2642 76.1812 27.983 75.2664 27.4205C74.3516 26.858 73.6414 26.071 73.1357 25.0597C72.63 24.0483 72.3772 22.8665 72.3772 21.5142C72.3772 20.1562 72.63 18.9687 73.1357 17.9517C73.6414 16.9347 74.3516 16.1449 75.2664 15.5824C76.1812 15.0199 77.2522 14.7386 78.4795 14.7386C79.7067 14.7386 80.7778 15.0199 81.6925 15.5824C82.6073 16.1449 83.3175 16.9347 83.8232 17.9517C84.3289 18.9687 84.5817 20.1562 84.5817 21.5142C84.5817 22.8665 84.3289 24.0483 83.8232 25.0597C83.3175 26.071 82.6073 26.858 81.6925 27.4205C80.7778 27.983 79.7067 28.2642 78.4795 28.2642ZM78.488 26.125C79.2834 26.125 79.9425 25.9148 80.4653 25.4943C80.988 25.0739 81.3743 24.5142 81.6243 23.8153C81.88 23.1165 82.0079 22.3466 82.0079 21.5057C82.0079 20.6705 81.88 19.9034 81.6243 19.2045C81.3743 18.5 80.988 17.9347 80.4653 17.5085C79.9425 17.0824 79.2834 16.8693 78.488 16.8693C77.6868 16.8693 77.0221 17.0824 76.4937 17.5085C75.9709 17.9347 75.5817 18.5 75.3261 19.2045C75.0761 19.9034 74.9511 20.6705 74.9511 21.5057C74.9511 22.3466 75.0761 23.1165 75.3261 23.8153C75.5817 24.5142 75.9709 25.0739 76.4937 25.4943C77.0221 25.9148 77.6868 26.125 78.488 26.125ZM88.3517 32.9091C87.971 32.9091 87.6244 32.8778 87.3119 32.8153C86.9994 32.7585 86.7664 32.696 86.613 32.6278L87.2267 30.5398C87.6926 30.6648 88.1074 30.7188 88.471 30.7017C88.8346 30.6847 89.1557 30.5483 89.4341 30.2926C89.7182 30.0369 89.9682 29.6193 90.1841 29.0398L90.4994 28.1705L85.7096 14.9091H88.4369L91.7522 25.0682H91.8886L95.2039 14.9091H97.9397L92.5449 29.7472C92.2949 30.429 91.9767 31.0057 91.5903 31.4773C91.2039 31.9545 90.7437 32.3125 90.2096 32.5511C89.6755 32.7898 89.0562 32.9091 88.3517 32.9091ZM103.529 28.2898C102.7 28.2898 101.95 28.1364 101.279 27.8295C100.609 27.517 100.078 27.0653 99.6855 26.4744C99.2992 25.8835 99.106 25.1591 99.106 24.3011C99.106 23.5625 99.248 22.9545 99.5321 22.4773C99.8162 22 100.2 21.6222 100.683 21.3438C101.166 21.0653 101.705 20.8551 102.302 20.7131C102.899 20.571 103.507 20.4631 104.126 20.3892C104.91 20.2983 105.546 20.2244 106.035 20.1676C106.524 20.1051 106.879 20.0057 107.1 19.8693C107.322 19.733 107.433 19.5114 107.433 19.2045V19.1449C107.433 18.4006 107.222 17.8239 106.802 17.4148C106.387 17.0057 105.768 16.8011 104.944 16.8011C104.086 16.8011 103.41 16.9915 102.916 17.3722C102.427 17.7472 102.089 18.1648 101.901 18.625L99.5066 18.0795C99.7907 17.2841 100.205 16.642 100.751 16.1534C101.302 15.6591 101.936 15.3011 102.651 15.0795C103.367 14.8523 104.12 14.7386 104.91 14.7386C105.433 14.7386 105.987 14.8011 106.572 14.9261C107.163 15.0455 107.714 15.267 108.225 15.5909C108.742 15.9148 109.166 16.3778 109.495 16.9801C109.825 17.5767 109.99 18.3523 109.99 19.3068V28H107.501V26.2102H107.399C107.234 26.5398 106.987 26.8636 106.657 27.1818C106.328 27.5 105.904 27.7642 105.387 27.9744C104.87 28.1847 104.251 28.2898 103.529 28.2898ZM104.083 26.2443C104.788 26.2443 105.39 26.1051 105.89 25.8267C106.396 25.5483 106.779 25.1847 107.041 24.7358C107.308 24.2812 107.441 23.7955 107.441 23.2784V21.5909C107.35 21.6818 107.174 21.767 106.913 21.8466C106.657 21.9205 106.365 21.9858 106.035 22.0426C105.705 22.0937 105.384 22.142 105.072 22.1875C104.759 22.2273 104.498 22.2614 104.288 22.2898C103.793 22.3523 103.342 22.4574 102.933 22.6051C102.529 22.7528 102.205 22.9659 101.961 23.2443C101.722 23.517 101.603 23.8807 101.603 24.3352C101.603 24.9659 101.836 25.4432 102.302 25.767C102.768 26.0852 103.362 26.2443 104.083 26.2443ZM118.632 33.1818C117.593 33.1818 116.698 33.0455 115.948 32.7727C115.203 32.5 114.595 32.1392 114.124 31.6903C113.652 31.2415 113.3 30.75 113.067 30.2159L115.257 29.3125C115.411 29.5625 115.615 29.8267 115.871 30.1051C116.132 30.3892 116.485 30.6307 116.928 30.8295C117.377 31.0284 117.953 31.1278 118.658 31.1278C119.624 31.1278 120.422 30.892 121.053 30.4205C121.683 29.9545 121.999 29.2102 121.999 28.1875V25.6136H121.837C121.683 25.892 121.462 26.2017 121.172 26.5426C120.888 26.8835 120.496 27.179 119.996 27.429C119.496 27.679 118.845 27.804 118.044 27.804C117.01 27.804 116.078 27.5625 115.249 27.0795C114.425 26.5909 113.772 25.8722 113.289 24.9233C112.811 23.9687 112.573 22.7955 112.573 21.4034C112.573 20.0114 112.808 18.8182 113.28 17.8239C113.757 16.8295 114.411 16.0682 115.24 15.5398C116.07 15.0057 117.01 14.7386 118.061 14.7386C118.874 14.7386 119.53 14.875 120.03 15.1477C120.53 15.4148 120.919 15.7273 121.198 16.0852C121.482 16.4432 121.701 16.7585 121.854 17.0312H122.041V14.9091H124.539V28.2898C124.539 29.4148 124.277 30.3381 123.754 31.0597C123.232 31.7813 122.524 32.3153 121.632 32.6619C120.746 33.0085 119.746 33.1818 118.632 33.1818ZM118.607 25.6903C119.34 25.6903 119.959 25.5199 120.465 25.179C120.976 24.8324 121.362 24.3381 121.624 23.696C121.891 23.0483 122.024 22.2727 122.024 21.3693C122.024 20.4886 121.894 19.7131 121.632 19.0426C121.371 18.3722 120.987 17.8494 120.482 17.4744C119.976 17.0937 119.351 16.9034 118.607 16.9034C117.84 16.9034 117.201 17.1023 116.689 17.5C116.178 17.892 115.791 18.4261 115.53 19.1023C115.274 19.7784 115.147 20.5341 115.147 21.3693C115.147 22.2273 115.277 22.9801 115.539 23.6278C115.8 24.2756 116.186 24.7812 116.698 25.1449C117.215 25.5085 117.851 25.6903 118.607 25.6903ZM133.358 28.2642C132.068 28.2642 130.958 27.9886 130.026 27.4375C129.1 26.8807 128.384 26.0994 127.878 25.0938C127.378 24.0824 127.128 22.8977 127.128 21.5398C127.128 20.1989 127.378 19.017 127.878 17.9943C128.384 16.9716 129.088 16.1733 129.992 15.5994C130.901 15.0256 131.963 14.7386 133.179 14.7386C133.918 14.7386 134.634 14.8608 135.327 15.1051C136.02 15.3494 136.642 15.733 137.193 16.2557C137.745 16.7784 138.179 17.4574 138.497 18.2926C138.816 19.1222 138.975 20.1307 138.975 21.3182V22.2216H128.568V20.3125H136.478C136.478 19.642 136.341 19.0483 136.068 18.5312C135.796 18.0085 135.412 17.5966 134.918 17.2955C134.429 16.9943 133.855 16.8438 133.196 16.8438C132.48 16.8438 131.855 17.0199 131.321 17.3722C130.793 17.7187 130.384 18.1733 130.094 18.7358C129.81 19.2926 129.668 19.8977 129.668 20.5511V22.0426C129.668 22.9176 129.821 23.6619 130.128 24.2756C130.441 24.8892 130.875 25.358 131.432 25.6818C131.989 26 132.639 26.1591 133.384 26.1591C133.867 26.1591 134.307 26.0909 134.705 25.9545C135.103 25.8125 135.446 25.6023 135.736 25.3239C136.026 25.0455 136.247 24.7017 136.401 24.2926L138.813 24.7273C138.62 25.4375 138.273 26.0597 137.773 26.5938C137.279 27.1222 136.657 27.5341 135.907 27.8295C135.162 28.1193 134.313 28.2642 133.358 28.2642Z" fill="#F22F33"/>
<path d="M67.6055 45V37H70.9102C71.5091 37 72.026 37.1081 72.4609 37.3242C72.8984 37.5378 73.2357 37.8451 73.4727 38.2461C73.7096 38.6445 73.8281 39.1172 73.8281 39.6641C73.8281 40.2187 73.707 40.6901 73.4648 41.0781C73.2227 41.4635 72.8789 41.7578 72.4336 41.9609C71.9883 42.1615 71.4609 42.2617 70.8516 42.2617H68.7617V40.7383H70.4922C70.7839 40.7383 71.0273 40.7005 71.2227 40.625C71.4206 40.5469 71.5703 40.4297 71.6719 40.2734C71.7734 40.1146 71.8242 39.9115 71.8242 39.6641C71.8242 39.4167 71.7734 39.2122 71.6719 39.0508C71.5703 38.8867 71.4206 38.7643 71.2227 38.6836C71.0247 38.6003 70.7813 38.5586 70.4922 38.5586H69.5391V45H67.6055ZM72.1094 41.3437L74.1016 45H71.9922L70.0391 41.3437H72.1094ZM77.8587 45V37H83.4368V38.5703H79.7923V40.2109H83.1516V41.7852H79.7923V43.4297H83.4368V45H77.8587ZM94.4263 37V45H92.7857L89.6021 40.3828H89.5513V45H87.6177V37H89.2818L92.4302 41.6094H92.4966V37H94.4263ZM98.3504 38.5703V37H105.112V38.5703H102.686V45H100.78V38.5703H98.3504ZM109.758 45H107.68L110.379 37H112.953L115.652 45H113.574L111.695 39.0156H111.633L109.758 45ZM109.481 41.8516H113.824V43.3203H109.481V41.8516ZM119.484 45V37H121.417V43.4297H124.746V45H119.484ZM133.041 39.3984C133.015 39.112 132.899 38.8893 132.693 38.7305C132.49 38.569 132.2 38.4883 131.822 38.4883C131.572 38.4883 131.364 38.5208 131.197 38.5859C131.03 38.651 130.905 38.7409 130.822 38.8555C130.739 38.9674 130.696 39.0964 130.693 39.2422C130.688 39.362 130.711 39.4674 130.763 39.5586C130.818 39.6497 130.896 39.7305 130.998 39.8008C131.102 39.8685 131.227 39.9284 131.373 39.9805C131.519 40.0326 131.683 40.0781 131.865 40.1172L132.552 40.2734C132.948 40.3594 133.297 40.474 133.599 40.6172C133.904 40.7604 134.159 40.931 134.365 41.1289C134.573 41.3268 134.731 41.5547 134.838 41.8125C134.944 42.0703 134.999 42.3594 135.002 42.6797C134.999 43.1849 134.871 43.6185 134.619 43.9805C134.366 44.3424 134.003 44.6198 133.529 44.8125C133.058 45.0052 132.489 45.1016 131.822 45.1016C131.153 45.1016 130.569 45.0013 130.072 44.8008C129.575 44.6003 129.188 44.2956 128.912 43.8867C128.636 43.4779 128.494 42.9609 128.486 42.3359H130.338C130.353 42.5938 130.422 42.8086 130.545 42.9805C130.667 43.1523 130.835 43.2826 131.049 43.3711C131.265 43.4596 131.515 43.5039 131.799 43.5039C132.059 43.5039 132.28 43.4687 132.463 43.3984C132.647 43.3281 132.789 43.2305 132.888 43.1055C132.987 42.9805 133.038 42.8372 133.041 42.6758C133.038 42.5247 132.991 42.3958 132.9 42.2891C132.809 42.1797 132.668 42.0859 132.478 42.0078C132.291 41.9271 132.051 41.8529 131.759 41.7852L130.924 41.5898C130.231 41.431 129.685 41.1745 129.287 40.8203C128.888 40.4635 128.69 39.9818 128.693 39.375C128.69 38.8802 128.823 38.4466 129.091 38.0742C129.36 37.7018 129.731 37.4115 130.205 37.2031C130.679 36.9948 131.219 36.8906 131.826 36.8906C132.446 36.8906 132.983 36.9961 133.439 37.207C133.897 37.4154 134.253 37.7083 134.506 38.0859C134.758 38.4635 134.887 38.901 134.892 39.3984H133.041Z" fill="black"/>
<path d="M20.006 45.1547L27.895 29.3743C27.9045 29.3546 27.9194 29.338 27.938 29.3263C27.9566 29.3147 27.9781 29.3085 28 29.3085C28.0219 29.3085 28.0434 29.3147 28.0619 29.3263C28.0805 29.338 28.0954 29.3546 28.105 29.3743L35.994 45.1547C36.0453 45.2573 35.9333 45.3647 35.8306 45.3087L28.0583 40.866C28.0406 40.8558 28.0205 40.8504 28 40.8504C27.9795 40.8504 27.9594 40.8558 27.9416 40.866L20.167 45.3087C20.0666 45.367 19.9546 45.2597 20.0036 45.1547H20.006Z" stroke="#F22F33" stroke-linecap="round"/>
<path d="M37.3333 38.5H42.7C45.3133 38.5 46.62 38.5 47.6186 37.9913C48.4967 37.5439 49.2106 36.83 49.658 35.952C50.1666 34.9533 50.1666 33.6467 50.1666 31.0333V17.9667C50.1666 15.3533 50.1666 14.0467 49.658 13.048C49.2106 12.1699 48.4967 11.4561 47.6186 11.0087C46.62 10.5 45.3133 10.5 42.7 10.5H13.3C10.6866 10.5 9.37998 10.5 8.38131 11.0087C7.50326 11.4561 6.78938 12.1699 6.34198 13.048C5.83331 14.0467 5.83331 15.3533 5.83331 17.9667V31.0333C5.83331 33.6467 5.83331 34.9533 6.34198 35.952C6.78938 36.83 7.50326 37.5439 8.38131 37.9913C9.37998 38.5 10.6866 38.5 13.3 38.5H18.6666M12.8333 38.5L17.5 10.5M43.1666 38.5L38.5 10.5M28 22.1667V15.1667" stroke="black" stroke-linecap="round"/>
</svg>
